<?xml version="1.0" encoding="utf-8"?>
<!-- Generator: Adobe Illustrator 28.0.0, SVG Export Plug-In . SVG Version: 6.00 Build 0)  -->
<svg version="1.1" id="Слой_1" xmlns="http://www.w3.org/2000/svg" xmlns:xlink="http://www.w3.org/1999/xlink" x="0px" y="0px"
	 viewBox="0 0 1000 770.8373413" style="enable-background:new 0 0 1000 770.8373413;" xml:space="preserve">
<style type="text/css">
	.st0{fill:#F01022;}
</style>
<path class="st0" d="M485.6297302,275.6250305l-50.7365723-26.0997467c-1.599762-0.8112793-2.6052246-2.4455872-2.6052246-4.2395172
	V65.9812012c0-1.7828674-1.0061035-3.4168243-2.6058655-4.2398415l-25.7113953-13.2326546
	c-3.1994934-1.6453629-7.0160828,0.6627045-7.0160828,4.2398415v283.7837219c0,1.7825317,1.0054626,3.4168396,2.6051941,4.2395325
	l51.1370239,26.3053284c0.6741333,0.3544922,1.4401245,0.537262,2.2054443,0.537262h94.160614
	c0.7653198,0,1.531311-0.1827698,2.2054443-0.537262l51.1370239-26.3053284
	c1.5997314-0.8226929,2.6052246-2.4570007,2.6052246-4.2395325V52.7713547c0-3.577137-3.8165894-5.8852043-7.0161133-4.2398453
	l-25.7113647,13.2326584c-1.5997925,0.8230171-2.6052246,2.4569778-2.6052246,4.2398453v179.3045654
	c0,1.7828674-1.0061646,3.4168243-2.605896,4.239502l-50.5192871,25.985733
	c-0.6747437,0.3541565-1.4400635,0.5255127-2.1940308,0.5255127l-24.5113831,0.1143799
	c-0.7659912,0-1.5427246-0.1827698-2.2175293-0.537262h-0.0113831L485.6297302,275.6250305z M511.7529602,234.6244507
	c2.6508484,0,4.8106384-2.1370239,4.8106384-4.7764435V39.7325478c0-1.793602,1.0054932-3.4282303,2.6052246-4.2391739
	l68.1862793-34.9557304c1.5769653-0.8002108,3.473877-0.6861824,4.9367676,0.3078766l27.5968628,18.9240131
	c1.3026123,0.8800297,2.0800171,2.3650818,2.0800171,3.930624v366.1286316c0,1.7486572-0.9719238,3.3598022-2.526062,4.2052917
	l-60.6557007,32.5332947c-0.708313,0.3772888-1.4850464,0.5714722-2.2852783,0.5714722H446.9144287
	c-0.7539368,0-1.519928-0.1827698-2.1940308-0.5369263l-64.0725403-32.6134644
	c-1.611145-0.8226624-2.6166077-2.4569702-2.6166077-4.239502V23.7001591c0-1.5655422,0.7653198-3.0391922,2.0800171-3.930624
	l27.5961914-18.9240131c1.4629211-0.994059,3.3598022-1.130893,4.9367676-0.3078766l68.1862793,34.9557304
	c1.5883484,0.8223457,2.6051941,2.4569778,2.6051941,4.2391739v190.1154633c0,2.6280212,2.1598206,4.7764435,4.8113403,4.7764435
	h23.5287476H511.7529602z"/>
<g>
	<polygon class="st0" points="975.4424438,770.8373413 43.0766258,770.8373413 51.8823814,748.6320801 984.2739868,748.6320801 	"/>
	<path class="st0" d="M697.3540649,709.8391724c-1.4747925,5.2263184-6.3536377,8.4033813-10.8808594,7.0946655
		s-6.996521-6.578064-5.5217896-11.7871704c1.4747925-5.2262573,6.3535156-8.4033813,10.8807373-7.0946655
		C696.359314,699.3607788,698.8287964,704.6300659,697.3540649,709.8391724z M710.927002,637.8162231
		c0,0-0.9516602,27.9051514-19.1548462,43.7733765L710.927002,637.8162231z M321.363678,706.937561
		c-2.7609253,6.362854-9.6032104,9.7293091-14.7391968,7.4907227c-5.1445618-2.2386475-6.6021729-9.1524658-3.8583984-15.5152588
		c2.7609253-6.362854,9.2944946-9.6174316,14.4133301-7.3787842c5.1445618,2.2385864,6.928009,9.0663452,4.1670837,15.4033203
		h0.0257568H321.363678z M189.4227905,606.0795898c0,0,6.7136536,25.4857178-21.5385895,55.7844238L189.4227905,606.0795898z
		 M958.0717773,712.1035767c-4.3042603,0-2.8466187-4.9679565-2.8466187-4.9679565l14.1218262-33.2692261l-41.2937012,0.0689087
		l-7.5025024,17.6677856h21.0756226l-8.7373047,20.5004883h-91.0586548
		c-4.6386719,0.1808472-3.5325928-3.5903931-3.5325928-3.5903931l12.604126-34.6209717l-19.5578613,0.0430908
		l-13.8560181,37.4794922c-0.5058594,1.1967773-2.2978516,3.2373657-5.5646973,2.4796753
		c-3.5754395-1.1107178-1.6119995-6.0958862-1.6119995-6.0958862l11.2322998-33.8632812h-19.600769l-12.7155762,38.159668
		h-79.4749756c5.0331421-18.020813-9.3374023-25.218811-9.3374023-25.218811
		c48.8390503-47.6048584,8.7372437-84.8174438,8.7372437-84.8174438l-46.7040405,110.0362549c0,0-80.958313,0.0689087-89.2753906,0
		c-8.3170166-0.0688477-5.607605-4.2792358-4.064209-5.6309814c6.9708862-6.3800659,35.7805176-32.5803223,35.7805176-32.5803223
		h-25.1398315l-26.1772461,22.2741089l31.2103882-73.4952393h-24.4281006l-33.5682983,89.3635254
		c0,0-82.9818115,0.0258179-97.9953613,0.0430908c-1.611969,0-3.0867004-0.9729004-3.6440735-2.5054932
		c-1.1661072-3.1685181-0.9688721-7.1549683,0.8145752-10.8572388c3.0696411-6.362854,9.6889954-9.5055542,14.7906189-7.0258789
		c2.9324036,1.4379272,4.7244263,4.4342041,5.118866,7.9126587h16.1539001
		c0.1971741-10.9261475-4.5701294-20.6985474-13.3930054-25.00354
		c-13.1529541-6.4230957-30.2843323,1.7047729-38.2240906,18.1499023
		c-3.1124573,6.4230957-4.3300171,13.138916-3.9098816,19.3726196h-68.7741699
		c5.6761475-15.894165,0.7973633-32.2445679-11.9868774-37.8066406
		c-13.4616089-5.8720703-30.6101074,2.6604614-37.8296509,19.3466797c-2.666626,6.1820679-3.8155518,12.5621338-3.5326233,18.442749
		h-65.370224c-11.4980774-0.7318115-7.76828-12.2348633-7.76828-12.2348633l40.9421387-95.9416504h-30.1728668
		l-30.1728668,75.0192871c-9.6203156,19.7944336-18.4260864,25.1757202-20.23526,25.9075317
		c-14.8506165,6.0270386-12.0725708-12.2089844-12.0725708-12.2089844
		c78.2402191-78.635498,27.2318878-154.3607178,27.2318878-154.3607178l-53.8721619,150.0385132
		c-76.1395111,33.1744385-112.7773743-10.81427-112.7773743-10.81427L0,717.8809204
		c68.2426147,40.3983154,129.3085938-3.6162109,129.3085938-3.6162109
		c4.8787689,14.7145386,11.65242,21.1204224,18.7605133,22.8079834
		c20.904068,3.9003296,35.8232574-18.4857788,35.8232574-18.4857788
		c4.5700989,14.2324219,16.4883575,15.5152588,18.1432037,15.5324707c1.6548004,0.0172729,62.5063934,0,62.5063934,0
		c15.8023987,0,22.7732849-9.8583984,22.9533386-9.8583984c2.2979126,4.451355,5.8047791,8.0245361,10.503479,10.0822754
		c10.5292053,4.5891724,23.8106995,0.1808472,32.556488-9.953186c3.2667847,9.2213745,11.3180542,9.7293091,11.3180542,9.7293091
		s40.05896,0.0430908,49.5678406,0c9.2687683-0.0430298,18.0059814-9.1782227,18.4689941-9.6431274
		c2.2721863,4.1672363,5.8904724,9.3762207,12.2526245,9.6431274h81.4383545
		c7.8111877,0.0258789,18.760498-9.7981567,18.760498-9.7981567l-4.0126343,9.7981567h19.0691528l6.7307739-15.7993774
		c4.6386719,13.8104858,15.5365601,15.7821655,16.9083862,15.7993774c1.3718872,0.0258789,83.4019775,0,83.4019775,0
		c11.9611206,0.1808472,20.0638428-9.9100952,20.0638428-9.9100952c4.484314,8.3345337,9.4230347,11.2102661,14.6533813,11.7699585
		c13.6588135,1.4636841,22.6704102-8.7564087,22.6704102-8.7564087c1.4318848,5.7601318,6.6621704,6.8965454,7.9226074,6.8965454
		h59.5482788c12.6470337-1.2398071,19.5579834-9.6001587,19.5579834-9.6001587
		c2.8466187,8.8856201,9.5345459,11.0552979,14.147522,11.5719604
		c12.9299927,0.8609619,19.5322266-11.7269287,19.5322266-11.7269287
		c4.5271606,8.6015015,11.8495483,9.7723999,13.6587524,9.7723999h79.6550293
		c10.7692871-0.7318115,15.8024292-9.8412476,15.8024292-9.8412476c2.4951172,8.1364746,7.27948,9.8584595,9.6202393,9.8412476
		h49.302063L1000,712.0604858h-41.8424683l-0.0857544,0.0258789V712.1035767z"/>
</g>
</svg>
